<?xml version="1.0" encoding="utf-8"?>
<!-- Generator: Adobe Illustrator 24.2.1, SVG Export Plug-In . SVG Version: 6.00 Build 0)  -->
<svg version="1.1" id="Layer_1" xmlns="http://www.w3.org/2000/svg" xmlns:xlink="http://www.w3.org/1999/xlink" x="0px" y="0px"
	 viewBox="0 0 200 200" style="enable-background:new 0 0 200 200;" xml:space="preserve">
<style type="text/css">
	.st0{fill:#3B5A6F;}
	.st1{fill:url(#SVGID_1_);}
	.st2{fill:url(#SVGID_2_);}
	.st3{fill:#0082CA;}
	.st4{fill:url(#SVGID_3_);}
	.st5{fill:url(#SVGID_4_);}
	.st6{fill:url(#SVGID_5_);}
	.st7{fill:url(#SVGID_6_);}
	.st8{fill:url(#SVGID_7_);}
	.st9{fill:url(#SVGID_8_);}
	.st10{fill:#FFFFFF;}
	.st11{fill:url(#SVGID_9_);}
</style>
<g>
	<g>
		<path class="st0" d="M15.1,154.3c-1.6,2-3.5,2.7-5.5,2.7c-6.1,0-9.8-4.6-9.8-10.3c0-5.9,3.6-10.5,9.8-10.5c4.1,0,7.9,2.5,8.4,7
			h-4.2c-0.5-2.2-2.1-3.3-4.2-3.3c-3.9,0-5.4,3.3-5.4,6.8c0,3.3,1.5,6.7,5.4,6.7c2.9,0,4.5-1.5,4.7-4.3H10v-3.3h8.3v10.7h-2.8
			L15.1,154.3z"/>
		<path class="st0" d="M21.3,146.6c0.2-3.7,3.5-4.8,6.8-4.8c2.9,0,6.3,0.6,6.3,4.1v7.5c0,1.3,0.1,2.6,0.5,3.2h-4
			c-0.1-0.4-0.2-0.9-0.3-1.4c-1.3,1.3-3.1,1.8-4.8,1.8c-2.8,0-4.9-1.4-4.9-4.3c0.1-6.5,9.7-3,9.6-6.3c0-1.7-1.2-1.9-2.6-1.9
			c-1.5,0-2.5,0.6-2.6,2.2H21.3z M30.4,149.5c-0.7,0.6-2.1,0.6-3.3,0.8c-1.2,0.2-2.3,0.7-2.3,2.1c0,1.4,1.1,1.8,2.4,1.8
			c3.1,0,3.2-2.4,3.2-3.3V149.5z"/>
		<path class="st0" d="M36.5,153.6l7.5-8.4h-6.9v-3h12.1v3l-7.5,8.4h8v3H36.5V153.6z"/>
		<path class="st0" d="M51.7,146.6c0.2-3.7,3.5-4.8,6.8-4.8c2.9,0,6.3,0.6,6.3,4.1v7.5c0,1.3,0.1,2.6,0.5,3.2h-4
			c-0.1-0.4-0.2-0.9-0.3-1.4c-1.3,1.3-3.1,1.8-4.8,1.8c-2.8,0-4.9-1.4-4.9-4.3c0.1-6.5,9.7-3,9.6-6.3c0-1.7-1.2-1.9-2.6-1.9
			c-1.5,0-2.5,0.6-2.6,2.2H51.7z M60.8,149.5c-0.7,0.6-2.1,0.6-3.3,0.8c-1.2,0.2-2.3,0.7-2.3,2.1c0,1.4,1.1,1.8,2.4,1.8
			c3.1,0,3.2-2.4,3.2-3.3V149.5z"/>
		<path class="st0" d="M72.9,150c-0.1,4.1,2.8,5.3,6.5,5.3c2.1,0,5.3-1.1,5.3-4c0-2.2-2.2-3.1-4.1-3.6l-4.4-1.1
			c-2.3-0.6-4.5-1.7-4.5-4.8c0-2,1.3-5.6,6.8-5.6c3.9,0,7.3,2.1,7.3,6.2H84c-0.1-3-2.6-4.6-5.4-4.6c-2.6,0-5,1-5,4
			c0,1.9,1.4,2.7,3,3l4.8,1.2c2.8,0.7,5.1,2,5.1,5.2c0,1.4-0.6,5.7-7.6,5.7c-4.7,0-8.2-2.1-7.9-6.9H72.9z"/>
		<path class="st0" d="M89.2,136.7H91v12.5l8-6.9h2.3l-6.1,5.3l6.5,9h-2.2l-5.7-7.8l-2.8,2.4v5.4h-1.8V136.7z"/>
		<path class="st0" d="M101.5,142.2h1.9l4.7,12.2l4.4-12.2h1.8l-6.2,16.5c-1,2.4-1.6,3.1-3.8,3.1c-0.7,0-1,0-1.3-0.1v-1.5
			c0.4,0.1,0.8,0.1,1.2,0.1c1.6,0,1.9-0.9,2.5-2.3l0.6-1.6L101.5,142.2z"/>
		<path class="st0" d="M133.3,154.3c-1.6,2-3.5,2.7-5.5,2.7c-6.1,0-9.8-4.6-9.8-10.3c0-5.9,3.6-10.5,9.8-10.5c4.1,0,7.9,2.5,8.4,7
			H132c-0.5-2.2-2.1-3.3-4.2-3.3c-3.9,0-5.4,3.3-5.4,6.8c0,3.3,1.5,6.7,5.4,6.7c2.9,0,4.5-1.5,4.7-4.3h-4.4v-3.3h8.3v10.7h-2.8
			L133.3,154.3z"/>
		<path class="st0" d="M142.9,150.3c0.1,2.5,1.3,3.6,3.5,3.6c1.6,0,2.9-1,3.1-1.9h3.5c-1.1,3.4-3.5,4.8-6.7,4.8
			c-4.5,0-7.3-3.1-7.3-7.6c0-4.3,3-7.6,7.3-7.6c4.9,0,7.3,4.1,7,8.5H142.9z M149.3,147.8c-0.4-2-1.2-3.1-3.1-3.1
			c-2.6,0-3.2,1.9-3.3,3.1H149.3z"/>
		<path class="st0" d="M158.8,150.3c0.1,2.5,1.3,3.6,3.5,3.6c1.6,0,2.9-1,3.1-1.9h3.5c-1.1,3.4-3.5,4.8-6.7,4.8
			c-4.5,0-7.3-3.1-7.3-7.6c0-4.3,3-7.6,7.3-7.6c4.9,0,7.3,4.1,7,8.5H158.8z M165.3,147.8c-0.4-2-1.2-3.1-3.1-3.1
			c-2.6,0-3.2,1.9-3.3,3.1H165.3z"/>
		<path class="st0" d="M171.9,136.7h3.9v10.7l5-5.2h4.7l-5.4,5.3l6,9.1h-4.8l-3.9-6.4l-1.5,1.5v4.9h-3.9V136.7z"/>
		<path class="st0" d="M190.6,151.9c0,1.7,1.5,2.4,3,2.4c1.1,0,2.6-0.4,2.6-1.8c0-1.2-1.7-1.6-4.5-2.2c-2.3-0.5-4.6-1.3-4.6-3.8
			c0-3.7,3.2-4.6,6.3-4.6c3.1,0,6,1.1,6.3,4.6H196c-0.1-1.5-1.3-1.9-2.7-1.9c-0.9,0-2.2,0.1-2.2,1.3c0,1.4,2.2,1.6,4.5,2.1
			c2.3,0.5,4.6,1.4,4.6,4c0,3.8-3.3,5-6.6,5c-3.3,0-6.6-1.3-6.8-5.1H190.6z"/>
	</g>
	<radialGradient id="SVGID_1_" cx="73.8566" cy="-4.4045" r="179.5395" gradientUnits="userSpaceOnUse">
		<stop  offset="0" style="stop-color:#FFE600"/>
		<stop  offset="0.4794" style="stop-color:#FF7800"/>
		<stop  offset="1" style="stop-color:#D90026"/>
	</radialGradient>
	<path class="st1" d="M81.9,88.7c-12.1,10.9-19.2,21.2-22.7,26.1c-1.4-2-2.5-3.9-3.3-5.8c-2.6-6-2.9-10.9-2.9-11l0-0.1l0-0.1
		C52,88.7,63.1,83.1,63.2,83l2.5-1.2l-1.3-2.5c-0.3-0.5-0.5-1-0.7-1.5c-4.7-10.7,0.6-17.7,0.8-18c8.2-10.6,19.4-8.1,22.1-7.3
		c0.4-0.9,0.7-1.5,0.7-1.5l2.9,0.6c-0.4,0.4-0.8,1-1.1,1.7l1.2-1.5c6.4-8.5,16.7-4.5,17.2-4.4l0.3,0.1c0.2-0.7,0.4-1.1,0.4-1.1
		l2.5,0.1c-0.4,0.3-0.8,0.8-1.1,1.4l1-1.3c3.6-4.6,8-6.6,13-5.9c4,0.6,6.9,2.6,6.9,2.6l1.1,0.8l0.1,0l0.8-0.2l0.3-0.1
		c6.6-2-14-12.1-24.5,1.1c0,0-13.4-5.7-21.2,4.7c0,0-14.5-5-25,8.6c0,0-7.3,9-0.4,22.5c0,0-12.9,6.3-11.7,17.6c0,0,0.5,11.4,9,21.3
		c0,0,9.5-13.4,28.7-30.1c0.6-1.9,1.6-5,2.5-7.7C87.6,83.8,84.7,86.2,81.9,88.7z"/>
	<radialGradient id="SVGID_2_" cx="73.8555" cy="-4.4051" r="179.5408" gradientUnits="userSpaceOnUse">
		<stop  offset="0" style="stop-color:#FFE600"/>
		<stop  offset="0.4794" style="stop-color:#FF7800"/>
		<stop  offset="1" style="stop-color:#D90026"/>
	</radialGradient>
	<path class="st2" d="M141.6,53.4c-9.2,4.6-19,8.9-28.9,14.2c1.5,0,3,0,4.2,0C124.4,62.7,132.6,57.9,141.6,53.4z"/>
	<path class="st3" d="M90.1,113.4l-0.7,0.9C89.7,114.1,89.9,113.8,90.1,113.4z"/>
	<radialGradient id="SVGID_3_" cx="73.9339" cy="-4.4512" r="179.5352" gradientUnits="userSpaceOnUse">
		<stop  offset="0" style="stop-color:#FFE600"/>
		<stop  offset="0.4794" style="stop-color:#FF7800"/>
		<stop  offset="1" style="stop-color:#D90026"/>
	</radialGradient>
	<path class="st4" d="M107.7,47.5c-0.4,1.1-0.9,3.1-0.7,5.6c0,0,1,0.7,1.3-0.2c0,0,0.2-3,1.2-5l-0.2,0.3L107.7,47.5z"/>
	<radialGradient id="SVGID_4_" cx="73.8562" cy="-4.4023" r="179.5341" gradientUnits="userSpaceOnUse">
		<stop  offset="0" style="stop-color:#FFE600"/>
		<stop  offset="0.4794" style="stop-color:#FF7800"/>
		<stop  offset="1" style="stop-color:#D90026"/>
	</radialGradient>
	<path class="st5" d="M110.7,46.4l-2.5-0.1c0,0-0.2,0.4-0.4,1.1l1.6,0.7l0.2-0.3C109.9,47.3,110.2,46.8,110.7,46.4z"/>
	<radialGradient id="SVGID_5_" cx="73.9348" cy="-4.4478" r="179.526" gradientUnits="userSpaceOnUse">
		<stop  offset="0" style="stop-color:#FFE600"/>
		<stop  offset="0.4794" style="stop-color:#FF7800"/>
		<stop  offset="1" style="stop-color:#D90026"/>
	</radialGradient>
	<path class="st6" d="M110.7,46.4l-2.5-0.1c0,0-0.2,0.4-0.4,1.1l1.6,0.7l0.2-0.3C109.9,47.3,110.2,46.8,110.7,46.4z"/>
	<radialGradient id="SVGID_6_" cx="73.8525" cy="-4.4014" r="179.5303" gradientUnits="userSpaceOnUse">
		<stop  offset="0" style="stop-color:#FFE600"/>
		<stop  offset="0.4794" style="stop-color:#FF7800"/>
		<stop  offset="1" style="stop-color:#D90026"/>
	</radialGradient>
	<path class="st7" d="M87.2,52.6c-0.1,0-0.3-0.1-0.6-0.2c-1,2.2-2.3,6.6-0.7,11.4c0,0,0.9,1.2,0.9-0.9c0-0.1,0-0.2,0-0.2
		c0-0.3,0.8-6.3,2.3-9.6l-0.1,0.1L87.2,52.6z"/>
	<radialGradient id="SVGID_7_" cx="73.8568" cy="-4.4055" r="179.5407" gradientUnits="userSpaceOnUse">
		<stop  offset="0" style="stop-color:#FFE600"/>
		<stop  offset="0.4794" style="stop-color:#FF7800"/>
		<stop  offset="1" style="stop-color:#D90026"/>
	</radialGradient>
	<path class="st8" d="M87.3,51c0,0-0.3,0.5-0.7,1.5c0.3,0.1,0.5,0.2,0.6,0.2l1.9,0.7l0.1-0.1c0.3-0.7,0.7-1.3,1.1-1.7L87.3,51z"/>
	<radialGradient id="SVGID_8_" cx="73.8516" cy="-4.4008" r="179.5289" gradientUnits="userSpaceOnUse">
		<stop  offset="0" style="stop-color:#FFE600"/>
		<stop  offset="0.4794" style="stop-color:#FF7800"/>
		<stop  offset="1" style="stop-color:#D90026"/>
	</radialGradient>
	<path class="st9" d="M87.3,51c0,0-0.3,0.5-0.7,1.5c0.3,0.1,0.5,0.2,0.6,0.2l1.9,0.7l0.1-0.1c0.3-0.7,0.7-1.3,1.1-1.7L87.3,51z"/>
	<g>
		<path class="st3" d="M149.8,62.8c0,0-0.3-7.5-5.1-15.7c-0.7,0.3-1.6,0.6-2.6,1c0.8,1.3,1.5,2.6,2,3.9c2.7,6,2.9,10.9,2.9,11l0,0.1
			v0.1c1,9.2-10.1,14.8-10.2,14.8l-2.5,1.2l1.3,2.5c0.3,0.5,0.5,1,0.7,1.5c4.7,10.7-0.6,17.7-0.8,18c-8.5,11-20.3,7.9-22.4,7.3
			c0.9-2.3,2-6.4,0.4-10.8c0,0-0.9-1.2-0.9,0.9c0,0.1,0,0.1,0,0.2c0,0-0.8,6.9-2.6,10.1l-0.4,0.5c-6.4,8.5-16.7,4.5-17.2,4.4
			l-0.3-0.1c0.4-1.1,0.9-3.1,0.7-5.6c0,0-1-0.7-1.3,0.2c0,0-0.2,3.3-1.4,5.3c-0.2,0.3-0.5,0.7-0.7,0.9c-0.1,0-0.1,0.1-0.2,0.1l0,0
			c-3.6,4.5-8,6.5-12.9,5.8c-4-0.6-6.9-2.6-6.9-2.6l-1.1-0.8l-0.1,0l-0.8,0.2l-0.3,0.1c-6.5,2,14,12.1,24.5-1.1
			c0,0,13.4,5.7,21.2-4.7c0,0,14.5,5,25-8.6c0,0,7.4-9,0.4-22.5C138,80.3,151,74,149.8,62.8z"/>
		<path class="st3" d="M144.6,46.9c0,0.1,0.1,0.1,0.1,0.2c0,0,0,0,0,0C144.7,47,144.6,47,144.6,46.9z"/>
	</g>
	<path class="st3" d="M144.6,46.9c-0.6-1.1-1-1.8-1.8-2.7c-6.3,1.9-21.3,7.6-33.7,14.6c-2.1,1.2-4.2,2.5-6.2,3.7
		c0.6,1.8,1.1,3.4,1.4,4.4c16.9-10.2,30.8-16.1,37.8-18.8c1-0.4,1.9-0.7,2.6-1C144.7,47,144.6,47,144.6,46.9z"/>
	<path class="st3" d="M56.4,104c11.6-11.4,23.3-20.8,34.4-28.5C90,75,89,74.2,87.8,73.4C75.8,83.4,66.1,94.3,56.4,104z"/>
	<polygon class="st10" points="99.8,60.8 96.8,69.9 87.3,69.9 95,75.5 92,84.6 99.8,79 107.5,84.6 104.6,75.5 112.3,69.9 
		102.7,69.9 	"/>
	<radialGradient id="SVGID_9_" cx="99.3182" cy="27.349" r="104.3027" gradientUnits="userSpaceOnUse">
		<stop  offset="0" style="stop-color:#FFE600"/>
		<stop  offset="0.4794" style="stop-color:#FF7800"/>
		<stop  offset="1" style="stop-color:#D90026"/>
	</radialGradient>
	<polygon class="st11" points="99.8,60.8 96.8,69.9 87.3,69.9 95,75.5 92,84.6 99.8,79 107.5,84.6 104.6,75.5 112.3,69.9 
		102.7,69.9 	"/>
</g>
</svg>
