<?xml version="1.0" encoding="utf-8"?>
<!-- Generator: Adobe Illustrator 24.2.1, SVG Export Plug-In . SVG Version: 6.00 Build 0)  -->
<svg version="1.1" id="Layer_1" xmlns="http://www.w3.org/2000/svg" xmlns:xlink="http://www.w3.org/1999/xlink" x="0px" y="0px"
	 viewBox="0 0 200 200" style="enable-background:new 0 0 200 200;" xml:space="preserve">
<style type="text/css">
	.st0{fill:#A8C838;}
	.st1{fill:#FEFEFE;}
	.st2{fill:#EEEFF1;}
	.st3{fill:#3E3E3E;}
	.st4{fill:#949494;}
	.st5{fill:#959595;}
	.st6{fill:none;}
</style>
<g>
	<path class="st0" d="M34.7,151.1c0-5.2,0-10.4,0-15.7c0.3-0.2,0.6-0.2,0.9-0.3c0.4,0,0.8,0,1.1,0c36.7,0,73.3,0,110,0
		c1.6,0,1.6,0,1.6-1.6c0-3.4,0-6.8,0-10.3c0-1.6,0-1.6-1.6-1.6c-6,0-12.1,0-18.1,0c-0.3,0-0.6,0-1,0c-0.3,0-0.6,0-0.7-0.3
		c-0.1-0.3,0.2-0.5,0.4-0.6c1-0.7,1.9-1.4,2.8-2.2c6.9-5.6,11.8-12.6,14.9-21c1.3-3.6,2.1-7.2,2.6-11c0.2-1.4,0.3-2.8,0.3-4.2
		c0-0.6-0.2-0.8-0.8-0.8c-4.1,0-8.3,0-12.4,0c-0.7,0-0.8,0.4-0.8,1c-0.2,5-1.4,9.8-3.7,14.2c-4.4,8.3-11,14-20,17
		c-4.3,1.4-8.7,1.8-13.2,1.5c-4.8-0.4-9.2-1.8-13.5-4.1c-3-1.6-5.7-3.6-8-6c-5.2-5.4-8.4-11.8-9.4-19.2c-0.2-1.1-0.4-2.3-0.3-3.5
		c0-0.6-0.3-0.9-0.9-0.9c-4.1,0-8.2,0-12.3,0c-0.7,0-0.9,0.3-1,1c-0.1,2.7,0.4,5.4,0.9,8c1.3,6.8,4.1,13.1,8.1,18.8
		c3.1,4.3,6.8,8,11.1,11.1c0.4,0.3,1,0.5,0.9,1c-0.1,0.5-0.8,0.3-1.2,0.3c-11.8,0-23.6,0-35.5,0c-0.4,0-0.8,0-1.2-0.3
		c0-33.5,0-67,0-100.5c0.3-0.3,0.7-0.2,1.1-0.2c17.9,0,35.8,0,53.6,0c1.3,0,1.6,0.2,1.5,1.5c-0.1,4.6-1,9-2.6,13.2
		c-1.4,3.7-3.1,7.2-5.3,10.6c1.1-0.6,2-1.3,2.8-1.9c3.9-2.9,7.5-6.1,10.2-10.1c1.8-2.7,3.1-5.6,3.4-8.9c0.1-1.2-0.2-2.2-0.3-3.4
		c0-0.5,0-0.9,0.5-1c0.2-0.1,0.4-0.1,0.6,0c0.8,0.2,1.6,0.1,2.4,0.1c2.1,0,4.1,0,6.2,0c1.1,0,1.3,0.2,1.4,1.3
		c0.4,3.6-0.3,7.1-1.7,10.4c-2.2,5.3-6,9.5-10.2,13.3c-2.5,2.2-4.8,4.6-7,7.1c-3,3.4-5.8,7.1-7.8,11.2c-1.9,3.8-3.1,7.9-2.8,12.2
		c0.2,3.5,1.4,6.7,3.5,9.5c2.4,3.2,5.4,5.6,9,7.5c-1.9-2-3.3-4.3-4.2-6.8c-0.6-1.6-0.9-3.3-1-5c-0.3-6,2-11,5.5-15.6
		c3.5-4.8,8-8.6,12.8-12c3.5-2.5,7.1-4.9,10.2-7.8c2.3-2.2,4.4-4.5,6-7.3c1.9-3.3,2.9-6.8,2.5-10.6c-0.2-2.2-0.9-4.2-1.8-6.1
		c-0.2-0.4-0.6-0.9,0.1-1.2c0.4-0.1,0.8,0,1.1,0c13,0,26,0,38.9,0c1.7,0,1.7,0,1.7,1.8c0,42.4,0,84.7,0,127.1c0,1.7,0,1.7-1.7,1.7
		c-42.4,0-84.8,0-127.2,0C35.7,151.4,35.2,151.5,34.7,151.1z"/>
	<path class="st1" d="M34.7,121.6c12.6,0,25.2,0,37.8,0c-0.1-0.5-0.4-0.6-0.7-0.7c-4.8-3.4-8.8-7.6-12.1-12.4
		c-2.2-3.3-4-6.7-5.4-10.4c-1.4-3.8-2.3-7.8-2.7-11.9c-0.1-1.4-0.1-2.7-0.2-4.1c0-0.5,0.2-0.6,0.6-0.6c4.4,0,8.9,0,13.3,0
		c0.5,0,0.7,0.2,0.7,0.7c0.2,9.5,3.9,17.4,10.7,23.9c4.2,4,9.2,6.7,14.9,8.1c6.3,1.6,12.6,1.4,18.7-0.6c9.1-3,15.8-8.9,20.1-17.5
		c2.2-4.3,3.2-9,3.3-13.9c0-0.7,0.2-0.8,0.9-0.8c4.3,0,8.6,0,12.9,0c0.7,0,0.9,0.2,0.9,0.9c-0.1,4.5-0.8,9-2.1,13.3
		c-2,6.5-5.3,12.4-9.8,17.6c-2.5,2.9-5.4,5.5-8.6,7.8c-0.2,0.2-0.5,0.2-0.6,0.7c0.7,0,1.3,0,2,0c6.1,0,12.3,0,18.4,0
		c0.8,0,1,0.1,1,1c0,4,0,7.9,0,11.9c0,0.8-0.2,1.1-1.1,1.1c-11.1,0-22.1,0-33.2,0c-26.2,0-52.5,0-78.7,0c-0.3,0-0.6,0-1,0
		C34.7,130.8,34.7,126.2,34.7,121.6z"/>
	<path class="st2" d="M95.6,35.2c-3.4,4.6-7.8,8.2-12.6,11.3c-0.1,0.1-0.2,0.1-0.5,0.1c0.7-1.2,1.3-2.3,2-3.4
		c2.5-4.4,4.4-9,5.4-13.9c0.4-1.9,0.7-3.9,0.8-5.9c0-0.5,0-1,0-1.5c0-0.8-0.1-1.7-0.2-2.5c-0.4-2.8-0.8-5.5-1.6-8.2
		c-0.8-2.9-1.9-5.7-3.1-8.4c-0.1-0.3-0.3-0.7-0.3-1.1c0.2-0.1,0.3,0.1,0.4,0.2c3.1,2.9,6,6,8.4,9.5c1.9,2.7,3.6,5.6,4.6,8.9l0.3,1.2
		C100.5,26.8,98.6,31.2,95.6,35.2z"/>
	<path class="st3" d="M34.7,162.1c1.5,0,3,0,4.5,0c0.5,0,0.7,0.1,0.7,0.7c0,2.5,0,5,0,7.5c0,0.7,0.2,0.8,0.8,0.8
		c0.8,0,1.4-0.4,1.8-1.1c1.5-2.2,3-4.4,4.5-6.6c0.6-0.8,1.3-1.3,2.3-1.3c1.5,0,3,0,4.6,0c-2.7,3.5-5,7-7.7,10.4
		c1.6,0.8,2.2,2.5,3.2,4c1.7,2.5,3.3,5.1,5,7.7c-1.9,0-3.6,0-5.3,0c-0.6,0-1.1-0.5-1.4-1.1c-1.6-2.4-3.2-4.9-4.7-7.3
		c-0.6-0.9-2-1.3-2.9-1c-0.4,0.1-0.2,0.4-0.2,0.7c0,2.7,0,5.3,0,8c0,0.6-0.2,0.8-0.8,0.8c-1.5-0.1-3,0-4.4,0
		C34.7,176.8,34.7,169.5,34.7,162.1z"/>
	<path class="st4" d="M165.3,199.8c-1.1,0.2-1.9-0.2-2.4-1.3c-0.4-0.8-1-1.6-1.5-2.4c-0.2-0.4-0.4-0.3-0.6,0
		c-0.6,0.9-1.3,1.8-1.8,2.8c-0.4,0.8-1,1.1-1.9,0.8c0.3-0.8,0.9-1.4,1.3-2.1c0.5-0.7,0.9-1.5,1.5-2.2c0.3-0.4,0.3-0.7,0-1.1
		c-0.9-1.3-1.8-2.6-2.6-3.9c1.2-0.3,1.4-0.2,2,0.6c0.6,1,1.3,2,2,3c0.7-1.1,1.4-2,2.1-3c0.6-0.9,0.6-0.9,1.9-0.7
		c-0.9,1.2-1.7,2.5-2.5,3.6c-0.4,0.6-0.4,1,0,1.6c1,1.3,1.6,2.7,2.7,3.9C165.3,199.7,165.3,199.8,165.3,199.8z"/>
	<path class="st2" d="M123.9,36.5c-2,4.8-5.5,8.4-9.4,11.7c-3.4,2.9-7.2,5.1-10.7,7.9c-4.4,3.5-8.4,7.3-11.5,12
		c-1.6,2.4-2.9,5-3.6,7.9c-1,4.4-0.7,8.7,1.4,12.8c1,1.9,2.2,3.5,3.7,5.2c-1.1-0.4-2-0.9-2.8-1.4c-3.8-2.4-6.9-5.4-8.9-9.4
		c-1.5-3.1-2-6.3-1.7-9.7c0.6-6,3.4-11,6.8-15.7c3-4.2,6.6-7.9,10.4-11.5c2.1-2,4.2-3.9,6-6.2c2.8-3.4,5-7.2,5.9-11.6
		c0.4-2.2,0.7-4.3,0.4-6.5l-0.2-1.6c0-0.1,0-0.1,0-0.2c-0.9-4.7-3.1-8.8-6-12.5c-2-2.6-4.3-4.8-6.8-6.9c-0.2-0.2-0.4-0.4-0.7-0.6
		c0.4-0.1,0.7,0,1,0.1c2.7,1.3,5.2,2.7,7.8,4.2c3.2,1.9,6.2,4,9,6.4c3.3,2.8,6.4,5.8,8.6,9.6c0.1,0.2,0.3,0.4,0.5,0.5
		c0,0.1,0,0.1,0,0.2c0.4,1.4,1.2,2.7,1.6,4.1C125.7,29,125.5,32.8,123.9,36.5z"/>
	<path class="st2" d="M133.2,35c1.7,3.4,2.9,6.9,3.4,10.6c0.5,3.2,0.6,6.4,0,9.6c-0.9,4.5-3.1,8.1-6.6,11c-4,3.3-8.7,5.2-13.4,7.2
		c-2.7,1.2-5.5,2.3-8.1,3.9c-3,1.9-5.1,4.7-6.7,7.9c-1.3,2.7-1.9,5.6-1.6,8.6c0,0.2,0,0.5,0,0.8c-0.8-1.1-1.2-2.3-1.5-3.5
		c-0.6-2.5-0.9-5-0.5-7.5c0.6-3.8,2.3-7,4.7-9.9c3.5-4.1,8-7,12.8-9.3c4.2-2.1,7.7-4.9,10.5-8.6c3.4-4.4,5.4-9.5,6.4-14.9
		C133.1,38.9,133.3,37,133.2,35z"/>
	<path class="st3" d="M122.6,162.1c-1,1.8-6.8,9.4-7.8,10.3c1.6,0.7,2.2,2.3,3.1,3.6c1.8,2.6,3.5,5.3,5.2,7.9c0,0,0,0.1,0.1,0.3
		c-1.8,0-3.6,0.1-5.4-0.1c-0.6-0.1-1-0.6-1.3-1.2c-1.5-2.4-3.1-4.8-4.6-7.1c-0.6-0.9-2-1.3-2.9-1c-0.4,0.1-0.2,0.4-0.2,0.7
		c0,2.6,0,5.3,0,7.9c0,0.7-0.2,0.9-0.9,0.9c-1.2-0.1-2.5,0-3.7,0c-0.5,0-0.6-0.2-0.6-0.6c0-7,0-13.9,0-20.9c0-0.5,0.1-0.7,0.6-0.7
		c1.3,0,2.7,0,4,0c0.5,0,0.6,0.2,0.6,0.7c0,2.5,0,5,0,7.6c0,0.6,0.1,0.7,0.7,0.7c0.8,0,1.4-0.3,1.9-1c1.5-2.3,3.1-4.5,4.6-6.7
		c0.5-0.7,1-1.2,1.9-1.2C119.3,162.1,120.9,162.1,122.6,162.1z"/>
	<path class="st3" d="M134.3,173.1c0-3.4,0-6.9,0-10.3c0-0.6,0.1-0.7,0.7-0.7c4.3,0,8.6,0,12.9,0c0.6,0,0.7,0.2,0.7,0.7
		c0,0.8,0,1.7,0,2.5c0,0.6-0.1,0.8-0.8,0.8c-2.5,0-5,0-7.5,0c-0.7,0-0.9,0.2-0.8,0.9c0.1,1.2,0,2.4,0,3.6c0,0.6,0.2,0.7,0.7,0.7
		c1.9,0,3.7,0,5.6,0c0.5,0,0.7,0.1,0.7,0.7c0,0.8,0,1.6,0,2.4c0,0.6-0.1,0.7-0.7,0.7c-1.8,0-3.7,0-5.5,0c-0.6,0-0.8,0.1-0.8,0.7
		c0.1,1.3,0,2.6,0,3.8c0,0.5,0.1,0.7,0.7,0.7c2.6,0,5.1,0,7.7,0c0.5,0,0.8,0.1,0.7,0.7c-0.1,0.9,0,1.8,0,2.7c0,0.5-0.2,0.6-0.6,0.6
		c-4.3,0-8.6,0-13,0c-0.6,0-0.7-0.2-0.7-0.7C134.4,180,134.3,176.6,134.3,173.1z"/>
	<path class="st3" d="M158.1,161.8c2.2,0,4.2,0.6,6,1.8c0.6,0.4,0.8,0.7,0.3,1.4c-0.3,0.4-0.5,0.9-0.7,1.4c-0.6,1.1-1.2,1.3-2.3,0.7
		c-1.2-0.7-2.4-1.2-3.9-1.1c-0.4,0-0.9,0.1-1.2,0.4c-1.3,0.7-1.4,2.5-0.2,3.4c0.7,0.5,1.5,0.7,2.3,1c0.9,0.3,1.8,0.6,2.7,0.9
		c4.1,1.6,4.6,5.2,3.5,8.3c-1,2.7-3,4-5.7,4.5c-3.1,0.5-6-0.3-8.5-2.1c-0.6-0.4-0.9-0.8-0.3-1.5c0.4-0.4,0.6-0.9,0.9-1.4
		c0.6-1,1.3-1.1,2.3-0.5c1,0.6,2,1.2,3.1,1.5c0.7,0.1,1.4,0.1,2.1,0c1.1-0.3,1.7-0.9,1.8-2c0.1-1.1-0.2-1.8-1.2-2.4
		c-1.2-0.6-2.5-0.9-3.8-1.3c-2.2-0.7-3.9-1.8-4.6-4.2c-1.1-4.1,1.6-8,5.8-8.5C157,161.9,157.6,161.8,158.1,161.8z"/>
	<path class="st3" d="M130.5,173.1c0,3.4,0,6.8,0,10.2c0,0.8-0.2,1-1,0.9c-1.2-0.1-2.3-0.1-3.5,0c-0.6,0-0.8-0.1-0.8-0.8
		c0-4.5,0-8.9,0-13.4c0-2.4,0-4.7,0-7.1c0-0.6,0.1-0.9,0.8-0.9c1.2,0.1,2.4,0.1,3.6,0c0.6,0,0.8,0.1,0.8,0.8
		C130.5,166.2,130.5,169.7,130.5,173.1z"/>
	<path class="st4" d="M101.2,197.5c0-2.3,0-4.3,0-6.4c0-0.5,0.1-0.8,0.6-0.7c0.6,0,0.6,0.3,0.6,0.7c0,2.6,0,5.2,0,7.8
		c0,0.3,0.3,0.7-0.3,0.9c-0.4,0.1-0.8-0.1-1.1-0.4c-0.9-1.2-1.8-2.4-2.7-3.5c-0.7-1-1.5-1.9-2.5-2.9c0,1.2,0,2.4,0,3.7
		c0,0.9,0,1.7,0,2.6c0,0.5-0.2,0.6-0.6,0.6c-0.4,0-0.6-0.1-0.6-0.6c0-2.7,0-5.3,0-8c0-0.3-0.2-0.7,0.2-0.8c0.4-0.1,0.8,0,1.1,0.4
		c1,1.4,2.1,2.7,3.1,4.1C99.8,195.7,100.4,196.5,101.2,197.5z"/>
	<path class="st4" d="M119.1,192.6c0,2.3,0,4.3,0,6.4c0,0.4,0.1,0.9-0.6,0.8c-0.7,0-0.6-0.4-0.6-0.8c0-2.6-0.1-5.3,0.1-7.9
		c0-0.2-0.1-0.6,0.2-0.7c0.4-0.1,0.7,0,0.9,0.3c0.4,0.5,0.8,1,1.2,1.5c1.3,1.7,2.7,3.5,4.1,5.4c0-2.3,0-4.3,0-6.3
		c0-0.4-0.1-0.9,0.6-0.8c0.7,0,0.5,0.5,0.5,0.9c0,2.5,0,5-0.1,7.6c0,0.3,0.3,0.8-0.3,1c-0.5,0.1-0.8-0.2-1.1-0.6
		C122.5,197.1,120.9,195,119.1,192.6z"/>
	<path class="st4" d="M72.8,195.1c0-1.3,0-2.7,0-4c0-0.6,0.2-0.7,0.7-0.7c0.6,0,0.6,0.3,0.6,0.8c0,0.9,0,1.9-0.1,2.8
		c0,0.5,0.2,0.7,0.7,0.7c1.2,0,2.5,0,3.7,0c0.5,0,0.6-0.1,0.6-0.6c-0.1-1,0-1.9,0-2.9c0-0.5,0.2-0.7,0.7-0.7c0.6,0,0.6,0.3,0.6,0.7
		c0,2.7,0,5.3,0,8c0,0.4,0,0.7-0.6,0.7c-0.6,0-0.8-0.2-0.8-0.7c0-1,0-2,0-3c0-0.4-0.1-0.5-0.5-0.5c-1.3,0-2.6,0-3.9,0
		c-0.5,0-0.6,0.1-0.6,0.6c0,1-0.1,2.1,0,3.1c0,0.6-0.3,0.6-0.7,0.6c-0.5,0-0.6-0.2-0.6-0.6C72.8,197.9,72.8,196.5,72.8,195.1z"/>
	<path class="st4" d="M42.2,190.5c-1.2,1.3-2.3,2.6-3.4,3.8c-0.3,0.4-0.5,0.5,0,1c1.3,1.4,2.5,2.9,3.7,4.4c-0.9,0.2-1.6,0.1-2.1-0.7
		c-0.8-1-1.6-1.9-2.5-2.9c-0.2-0.2-0.4-0.4-0.6-0.6c-0.6-0.2-0.9-0.1-0.9,0.5c0,1,0,2,0.1,3c0,0.6-0.3,0.6-0.7,0.7
		c-0.5,0-0.6-0.2-0.6-0.7c0-2.7,0-5.4,0-8.2c0-0.4,0.1-0.6,0.6-0.6c0.4,0,0.7,0,0.7,0.6c0,0.9,0,1.8,0.1,2.7c0,0.3-0.1,0.6,0.2,0.8
		c0.4,0.1,0.7,0,0.9-0.3c0.8-0.9,1.5-1.7,2.3-2.6C40.4,190.8,41,190.1,42.2,190.5z"/>
	<path class="st4" d="M84.8,195.1c0-1.3,0-2.7,0-4c0-0.5,0.1-0.7,0.7-0.7c1.5,0,3.1,0,4.6,0c0.4,0,0.6,0.1,0.6,0.6
		c0,0.5-0.2,0.5-0.6,0.5c-1.1,0-2.2,0-3.3,0c-0.5,0-0.7,0.1-0.6,0.6c0,0.6,0,1.2,0,1.8c0,0.6,0.2,0.7,0.7,0.7c0.8,0,1.6,0,2.4,0
		c0.4,0,0.5,0.1,0.5,0.5c0,0.4-0.1,0.6-0.5,0.6c-0.8,0-1.7,0-2.5,0c-0.4,0-0.6,0.1-0.6,0.6c-0.1,2.6-0.1,2.5,2.4,2.5
		c0.5,0,1,0,1.6,0c0.4,0,0.6,0,0.6,0.5c0,0.5-0.2,0.6-0.6,0.6c-1.5,0-3.1,0-4.6,0c-0.6,0-0.7-0.2-0.7-0.7
		C84.9,197.8,84.8,196.5,84.8,195.1z"/>
	<path class="st4" d="M65.8,199.9c-2.3,0-3.8-0.9-4.4-2.9c-0.7-2.1-0.1-4.5,1.5-5.8c1.5-1.1,3.9-1.3,5.4-0.3
		c0.3,0.2,0.9,0.3,0.5,0.9c-0.3,0.5-0.7,0.4-1.1,0.1c-1.7-0.9-3.7-0.5-4.6,0.9c-1.1,1.7-0.7,4.3,0.8,5.4c1,0.7,2.7,0.8,3.8,0
		c0.4-0.3,0.7-0.5,1.1,0c0.4,0.5-0.2,0.6-0.4,0.8C67.6,199.7,66.6,199.9,65.8,199.9z"/>
	<path class="st4" d="M54.4,195.7c0-1.2,0-2.3,0-3.5c0-0.5-0.2-0.7-0.7-0.7c-0.6,0-1.2,0-1.8,0c-0.4,0-0.5-0.2-0.5-0.5
		c0-0.4,0.1-0.6,0.5-0.6c2.1,0,4.2,0,6.3,0c0.4,0,0.6,0.1,0.6,0.6c0,0.4-0.2,0.6-0.6,0.5c-0.6,0-1.2,0-1.7,0c-0.6,0-0.8,0.2-0.8,0.8
		c0,2.3,0,4.5,0,6.8c0,0.5,0,0.8-0.7,0.8c-0.6,0-0.7-0.3-0.7-0.8C54.4,197.9,54.4,196.8,54.4,195.7z"/>
	<path class="st5" d="M113.2,195.2c0,1.3,0,2.7,0,4c0,0.6-0.2,0.6-0.7,0.7c-0.5,0-0.7-0.1-0.7-0.6c0-2.7,0-5.4,0-8.1
		c0-0.6,0.2-0.7,0.7-0.7c0.5,0,0.7,0.1,0.7,0.6C113.1,192.4,113.2,193.8,113.2,195.2z"/>
	<path class="st5" d="M47.6,195.1c0,1.4,0,2.7,0,4.1c0,0.5-0.1,0.7-0.6,0.7c-0.5,0-0.8,0-0.8-0.6c0-2.7,0-5.3,0-8
		c0-0.5,0.1-0.8,0.8-0.8c0.7,0,0.6,0.4,0.6,0.8C47.6,192.5,47.6,193.8,47.6,195.1z"/>
	<path class="st4" d="M151.6,190.7c-2.1-0.9-4.6-0.2-5.7,1.5c-1.3,1.9-1.1,4.8,0.5,6.4c0.9,1,2.1,1.2,3.3,1.4c0.2,0,0.5,0,0.7,0
		c0.1,0,0.1-0.1,0.2-0.1c2.2-0.4,3.3-1.7,3.7-3.8C154.7,193.8,153.6,191.5,151.6,190.7z M148.2,198.5c-1.2-0.5-1.7-1.6-1.8-2.8
		c-0.2-2.3,1-4.3,3.6-4.1c1.8,0.1,2.9,1.5,2.9,3.6C153,198,150.7,199.6,148.2,198.5z"/>
	<path class="st3" d="M77.2,170.6c-1-5-4.8-8.3-10.2-8.8c-7.9-0.8-13.9,5.7-12.4,13.5c1,5.5,5.5,9,11.3,9
		C73.6,184.4,78.7,178.2,77.2,170.6z M71.5,176.6c-1,2.5-3.3,3.8-6.2,3.5c-2.8-0.2-4.7-2-5.3-4.8c-0.2-0.7-0.2-1.5-0.2-2.2
		c0-0.8,0-1.7,0.3-2.5c0.8-3.1,3-4.7,6.4-4.5c2.9,0.1,5,2,5.6,5C72.3,173,72.2,174.8,71.5,176.6z"/>
	<path class="st3" d="M101,170.4c-1-4.4-3.7-7.2-8.1-8.3c-4.6-1.1-8.8-0.3-12,3.5c-3.1,3.7-3.5,8-1.6,12.3c1.9,4.5,5.7,6.3,10.6,6.5
		c0.6-0.1,1.4-0.1,2.2-0.2C98.7,183,102.6,177.1,101,170.4z M95.7,175.8c-0.8,3-3.2,4.5-6.5,4.3c-2.9-0.2-5-2.2-5.5-5.2
		c-0.2-1.4-0.2-2.8,0.1-4.1c0.7-3,2.8-4.7,5.9-4.7c3.1,0,5.3,1.7,6,4.8C96.2,172.5,96.1,174.2,95.7,175.8z"/>
	<path class="st4" d="M139.7,195c1.2-0.8,1.6-1.6,1.4-2.7c-0.2-1-1-1.6-2.3-1.8c-1.1-0.1-2.3,0-3.5-0.1c-0.4,0-0.5,0.2-0.5,0.5
		c0,2.8,0,5.6,0,8.3c0,0.3,0.1,0.5,0.5,0.5c1.1,0,2.3,0,3.4,0c1.5-0.1,2.5-1,2.7-2.1C141.7,196.5,141.2,195.7,139.7,195z
		 M137.8,191.5c0.8,0,1.7,0,2,1.1c0.2,0.8-0.1,1.6-0.9,1.9c-0.8,0.3-1.6,0.2-2.4,0.2c-0.3,0-0.4-0.2-0.4-0.5c0-0.4,0-0.8,0-1.1
		C136.2,191.3,135.7,191.5,137.8,191.5z M138.9,198.7c-0.8,0.2-1.6,0.1-2.4,0.1c-0.3,0-0.4-0.2-0.4-0.5c0-0.4,0-0.8,0-1.1
		c0-1.6,0-1.6,1.6-1.6c0.3,0,0.6,0,1,0c0.9,0.1,1.5,0.6,1.5,1.4C140.3,197.8,139.7,198.5,138.9,198.7z"/>
	<polyline class="st6" points="110,21.9 109.8,20.3 109.7,20.1 	"/>
</g>
</svg>
