<?xml version="1.0" encoding="utf-8"?>
<!-- Generator: Adobe Illustrator 24.2.1, SVG Export Plug-In . SVG Version: 6.00 Build 0)  -->
<svg version="1.1" id="Layer_1" xmlns="http://www.w3.org/2000/svg" xmlns:xlink="http://www.w3.org/1999/xlink" x="0px" y="0px"
	 viewBox="0 0 200 200" style="enable-background:new 0 0 200 200;" xml:space="preserve">
<style type="text/css">
	.st0{fill:#737373;}
	.st1{fill:#F25022;}
	.st2{fill:#7FBA01;}
	.st3{fill:#00A4EF;}
	.st4{fill:#FFB902;}
</style>
<path id="Path_198" class="st0" d="M70.6,103.2l-1.2,3.4h-0.1c-0.3-1.1-0.7-2.2-1.2-3.3l-6.4-16.1h-6.3v25.6h4.1V97.1
	c0-1,0-2.1,0-3.5c0-0.7-0.1-1.2-0.1-1.6h0.1c0.1,0.7,0.3,1.5,0.6,2.2l7.7,18.7h2.9l7.6-18.8c0.2-0.7,0.4-1.3,0.5-2H79
	c-0.1,1.9-0.2,3.6-0.2,4.6v16.2h4.4V87.2h-6L70.6,103.2z M87.4,94.4h4.3v18.3h-4.3L87.4,94.4z M89.5,86.7c-0.7,0-1.3,0.3-1.8,0.7
	c-1,0.9-1,2.5-0.1,3.5c0,0,0.1,0.1,0.1,0.1c0.5,0.5,1.1,0.7,1.8,0.7c0.7,0,1.3-0.2,1.8-0.7c0.5-0.4,0.8-1.1,0.8-1.8
	c0-0.7-0.3-1.3-0.8-1.8C90.9,86.9,90.2,86.6,89.5,86.7 M106.9,94.2c-0.8-0.2-1.6-0.3-2.4-0.3c-1.8,0-3.6,0.4-5.2,1.3
	c-1.5,0.8-2.7,2.1-3.4,3.5c-0.8,1.6-1.2,3.5-1.2,5.3c0,1.7,0.4,3.3,1.2,4.7c0.7,1.4,1.9,2.5,3.2,3.3c1.5,0.8,3.1,1.2,4.7,1.2
	c1.8,0.1,3.6-0.4,5.2-1.2l0,0v-4l-0.2,0.1c-0.6,0.5-1.3,0.8-2.1,1.1c-0.7,0.2-1.4,0.4-2.1,0.4c-1.5,0.1-3-0.5-4-1.6
	c-1-1.2-1.6-2.8-1.5-4.3c-0.1-1.6,0.5-3.2,1.5-4.5c1-1.1,2.5-1.7,4-1.7c1.5,0,2.9,0.5,4.1,1.4l0.2,0.1v-4.2l0,0
	C108.3,94.6,107.6,94.4,106.9,94.2 M121.1,94.1c-1.1,0-2.1,0.4-2.9,1c-0.7,0.7-1.3,1.5-1.7,2.5h0v-3.2h-4.3v18.3h4.3v-9.4
	c-0.1-1.4,0.3-2.7,1.1-3.9c0.6-0.9,1.7-1.5,2.8-1.5c0.4,0,0.9,0.1,1.3,0.2c0.4,0.1,0.7,0.2,1,0.4l0.2,0.1v-4.3l-0.1,0
	C122.3,94.2,121.7,94.1,121.1,94.1 M132.9,94c-2.6-0.1-5.2,0.8-7.1,2.6c-1.8,2-2.7,4.6-2.6,7.2c-0.1,2.5,0.8,5,2.5,6.9
	c4,3.4,9.8,3.3,13.7-0.2c1.8-1.9,2.7-4.5,2.6-7.1c0.1-2.5-0.7-5-2.4-6.9C137.8,94.8,135.4,93.8,132.9,94 M136.3,108.1
	c-0.9,1.1-2.2,1.6-3.6,1.5c-1.4,0.1-2.8-0.5-3.7-1.6c-1-1.3-1.4-2.8-1.3-4.4c-0.1-1.6,0.4-3.2,1.3-4.5c0.9-1.1,2.3-1.7,3.7-1.6
	c1.4-0.1,2.7,0.5,3.6,1.5c1,1.3,1.4,2.9,1.3,4.5C137.6,105.2,137.2,106.8,136.3,108.1 M151.6,102c-0.9-0.3-1.8-0.8-2.6-1.4
	c-0.3-0.4-0.5-0.9-0.5-1.4c0-0.5,0.3-1,0.7-1.3c0.6-0.4,1.2-0.5,1.9-0.5c0.8,0,1.5,0.1,2.2,0.3c0.7,0.2,1.3,0.5,1.9,0.9l0.2,0.1v-4
	l-0.1,0c-0.6-0.2-1.3-0.4-2-0.6c-0.7-0.1-1.4-0.2-2.1-0.2c-1.8-0.1-3.6,0.5-5.1,1.6c-1.3,1-2,2.5-2,4c0,0.8,0.1,1.5,0.4,2.3
	c0.3,0.7,0.8,1.3,1.3,1.7c0.8,0.6,1.7,1.1,2.6,1.5c1,0.4,1.8,0.8,2.2,1c0.4,0.2,0.7,0.5,1,0.8c0.2,0.3,0.3,0.7,0.3,1
	c0,1.2-0.9,1.8-2.8,1.8c-0.8,0-1.6-0.2-2.4-0.4c-0.9-0.3-1.7-0.7-2.4-1.2l-0.2-0.1v4.2l0.1,0c0.7,0.3,1.5,0.6,2.3,0.7
	c0.8,0.2,1.6,0.3,2.5,0.3c1.9,0.1,3.8-0.4,5.3-1.6c1.3-1,2.1-2.5,2-4.2c0-1.1-0.3-2.3-1.1-3.1C154.3,103.3,153,102.6,151.6,102
	 M167.9,94c-2.6-0.1-5.2,0.8-7.1,2.6c-1.8,2-2.7,4.6-2.5,7.2c-0.1,2.5,0.8,5,2.5,6.9c4,3.4,9.8,3.3,13.7-0.2
	c1.8-1.9,2.7-4.5,2.5-7.1c0.1-2.5-0.7-5-2.4-6.9C172.8,94.8,170.4,93.8,167.9,94 M171.3,108.1c-0.9,1.1-2.2,1.6-3.6,1.5
	c-1.4,0.1-2.8-0.5-3.7-1.6c-1-1.3-1.4-2.8-1.3-4.4c-0.1-1.6,0.4-3.2,1.3-4.5c0.9-1.1,2.3-1.7,3.7-1.6c1.4-0.1,2.7,0.5,3.6,1.5
	c1,1.3,1.4,2.9,1.3,4.5C172.7,105.2,172.2,106.8,171.3,108.1 M200,98v-3.5h-4.3V89l-0.1,0l-4.1,1.2l-0.1,0v4.1h-6.5v-2.3
	c-0.1-0.9,0.2-1.7,0.7-2.4c0.5-0.6,1.3-0.8,2-0.8c0.7,0,1.3,0.2,1.9,0.4l0.2,0.1v-3.7l-0.1,0c-1.9-0.6-4-0.4-5.9,0.5
	c-1,0.5-1.8,1.4-2.4,2.4c-0.6,1-0.9,2.2-0.9,3.4v2.5h-3v3.5h3v14.8h4.3V98h6.5v9.4c0,3.9,1.8,5.8,5.5,5.8c0.6,0,1.2-0.1,1.8-0.2
	c0.5-0.1,0.9-0.2,1.4-0.4l0,0V109l-0.2,0.1c-0.3,0.2-0.6,0.3-0.9,0.4c-0.3,0.1-0.6,0.1-0.9,0.1c-0.7,0.1-1.4-0.2-1.9-0.7
	c-0.5-0.7-0.7-1.5-0.6-2.4v-8.7L200,98z"/>
<path id="Path_199" class="st1" d="M0,78.6h20.3v20.3H0V78.6z"/>
<path id="Path_200" class="st2" d="M22.4,78.6h20.3v20.3H22.4V78.6z"/>
<path id="Path_201" class="st3" d="M0,101.1h20.3v20.3H0V101.1z"/>
<path id="Path_202" class="st4" d="M22.4,101.1h20.3v20.3H22.4V101.1z"/>
</svg>
