<?xml version="1.0" encoding="utf-8"?>
<!-- Generator: Adobe Illustrator 24.2.1, SVG Export Plug-In . SVG Version: 6.00 Build 0)  -->
<svg version="1.1" id="Layer_1" xmlns="http://www.w3.org/2000/svg" xmlns:xlink="http://www.w3.org/1999/xlink" x="0px" y="0px"
	 viewBox="0 0 200 200" style="enable-background:new 0 0 200 200;" xml:space="preserve">
<style type="text/css">
	.st0{fill:#6B6B73;}
	.st1{fill:#BC362B;}
</style>
<g>
	<path class="st0" d="M137.4,112.1c-0.5-1.4-0.7-3.4-0.7-6.1V85.4h-3.7c-1.3,0-2.5,0.8-3,2l-8.3,19.9l-9.9-20.1
		c-0.6-1.1-1.7-1.8-3-1.8h-3.7l6.2,12.5l7.7,15.7c0.4,0.8,1.2,1.3,2.1,1.3l9.8-23.4v15.4c0,3.4,0.7,5.8,2.1,7.3
		c1.4,1.5,3.7,2.3,7,2.3v-2C138.7,114.2,137.9,113.5,137.4,112.1"/>
	<path class="st0" d="M151.1,114.5c1.7,0,3-0.4,4.1-1.1c1-0.7,1.5-1.8,1.5-3.2c0-1.3-0.4-2.4-1.2-3.2c-0.8-0.9-1.9-1.7-3.4-2.6
		l-5.5-3.3c-2-1.2-3.5-2.4-4.3-3.7c-0.8-1.3-1.3-2.7-1.3-4.3c0-2.4,0.9-4.2,2.7-5.6c1.8-1.4,4.2-2.1,7.3-2.1c1.2,0,2.4,0.1,3.6,0.4
		c1.2,0.2,2.3,0.6,3.2,1.1c1,0.5,1.7,1,2.3,1.7c0.6,0.7,0.9,1.4,0.9,2.3V96h-1.3c-0.5-3.1-1.5-5.3-2.8-6.6c-1.4-1.3-3.2-2-5.5-2
		c-1.6,0-2.9,0.4-3.8,1.2c-0.9,0.8-1.4,1.8-1.4,3.2c0,0.6,0.1,1.2,0.3,1.7c0.2,0.5,0.5,0.9,0.9,1.4c0.4,0.4,0.9,0.8,1.5,1.2
		c0.6,0.4,1.2,0.8,1.9,1.2l5.5,3.3c2,1.2,3.5,2.4,4.5,3.5c0.9,1.1,1.4,2.5,1.4,4.2c0,2.6-1,4.6-2.9,6.1c-1.9,1.5-4.7,2.2-8.3,2.2"/>
	<path class="st0" d="M165.7,100.8c0-2.2,0.4-4.3,1.1-6.2c0.7-1.9,1.7-3.6,3-5c1.3-1.4,2.8-2.5,4.7-3.3c1.8-0.8,3.8-1.2,6.1-1.2
		c2.2,0,4.3,0.4,6.1,1.2c1.8,0.8,3.3,1.9,4.6,3.3c1.3,1.4,2.3,3.1,3,5c0.7,1.9,1.1,4,1.1,6.2c0,2.2-0.4,4.3-1.1,6.2
		c-0.7,1.9-1.7,3.6-3,5c-1.3,1.4-2.8,2.5-4.6,3.3c-1.8,0.8-3.8,1.2-6.1,1.2c-2.2,0-4.3-0.4-6.1-1.2c-1.8-0.8-3.4-1.9-4.7-3.3
		c-1.3-1.4-2.3-3.1-3-5C166.1,105.1,165.7,103,165.7,100.8 M189.1,100.8c0-4.4-0.7-7.7-2.2-10.1c-1.5-2.4-3.6-3.6-6.3-3.6
		c-2.7,0-4.8,1.2-6.3,3.6c-1.5,2.4-2.2,5.7-2.2,10.1c0,4.4,0.7,7.7,2.2,10.1c1.5,2.4,3.6,3.6,6.3,3.6c2.7,0,4.8-1.2,6.3-3.6
		C188.3,108.6,189.1,105.2,189.1,100.8"/>
	<path class="st0" d="M198.4,110c-0.1,0.9-0.5,1.5-1.1,1.9c-0.6,0.4-1.6,0.5-2.8,0.3c-0.7-0.1-1.5-0.4-2.3-0.8
		c-0.8-0.5-1.7-1-2.6-1.5c-0.5-0.3-2.5-1.4-4.2-2.4c-1.7-0.9-3.7-0.2-4.6,1.5l-0.4,0.9c0.8,0.5,5.9,3.2,6.8,3.8c1,0.6,2,1.2,3.1,1.7
		c1.1,0.6,2.3,0.9,3.6,1.1c1.8,0.2,3.3-0.1,4.3-1.2c1-1,1.7-2.7,2-5L198.4,110z"/>
	<path class="st0" d="M92.5,106.9c-0.4,1.6-0.9,2.9-1.6,4.1c-1.5,2.4-3.6,3.6-6.3,3.6c-2.7,0-4.8-1.2-6.3-3.6
		c-1.5-2.4-2.2-5.7-2.2-10.1c0-4.4,0.7-7.7,2.2-10.1c1.2-1.9,2.7-3,4.6-3.4l-1-2c-1.2,0.2-2.4,0.5-3.4,1c-1.8,0.8-3.4,1.9-4.7,3.3
		c-1.3,1.4-2.3,3.1-3,5c-0.7,1.9-1.1,4-1.1,6.2c0,0.4,0,0.8,0,1.2v6.3c0,2.2-0.3,3.7-1,4.6c-0.7,0.9-1.5,1.3-2.5,1.3
		c-0.8,0-1.6-0.2-2.3-0.5c-0.7-0.3-1.2-0.7-1.6-1.2c0.1-0.3,0.2-0.6,0.4-1c0.1-0.3,0.2-0.8,0.2-1.3c0.1-0.6,0.1-1.2,0.1-2V93.9h-2.5
		c-1.8,0-3.3,1.5-3.3,3.3v11.2c0,2.2-0.3,3.7-1,4.6c-0.7,0.9-1.5,1.3-2.5,1.3c-0.7,0-1.4-0.2-2-0.6c-0.2-0.1-0.5-0.3-0.6-0.4
		c-0.3,0.5-0.4,1.8,0.5,2.3c0,0,0.1,0,0.1,0.1c0.1,0,0.1,0.1,0.2,0.1c0.9,0.5,2.1,0.7,3.4,0.7c0.8,0,1.6-0.1,2.3-0.3
		c0.7-0.2,1.3-0.4,1.8-0.7c0.5-0.3,0.9-0.5,1.3-0.8c0.3-0.3,0.6-0.5,0.8-0.7c0.6,0.7,1.4,1.2,2.3,1.8c1,0.5,2.3,0.8,4,0.8
		c2.5,0,4.4-0.7,5.8-1.9c0.5-0.5,0.9-1,1.2-1.7c1.1,1,2.3,1.8,3.7,2.4c1.8,0.8,3.8,1.2,6.1,1.2c2.2,0,4.3-0.4,6.1-1.2
		c1.7-0.8,3.2-1.8,4.5-3.2L92.5,106.9z"/>
	<path class="st0" d="M44.8,108.4c0,2.2-0.3,3.7-1,4.6c-0.7,0.9-1.5,1.3-2.6,1.3c-0.8,0-1.6-0.2-2.3-0.5c-0.7-0.3-1.2-0.7-1.6-1.2
		c0.1-0.3,0.2-0.6,0.4-1c0.1-0.3,0.2-0.8,0.2-1.3c0.1-0.6,0.1-1.2,0.1-2V97.9h-2.5c-1.8,0-3.3,1.5-3.3,3.3v7.2c0,2.2-0.3,3.7-1,4.6
		c-0.7,0.9-1.5,1.3-2.6,1.3c-0.7,0-1.4-0.2-2-0.6c-0.7-0.4-1.1-0.8-1.4-1.2c0-0.2,0.1-0.4,0.1-0.6c0.1-0.2,0.1-0.5,0.1-0.8
		c0-0.3,0-0.6,0-1V97h-5.8V110c0,0.7,0,1.3-0.1,1.8c-0.1,0.6-0.2,1-0.4,1.4c-0.2,0.4-0.5,0.7-0.9,0.9c-0.4,0.2-1,0.3-1.6,0.3h-0.4
		H8.4v2h7.9h4.4c2.1,0,3.5-1.5,3.8-2.1h0.2c0.5,0.5,1.3,1,2.2,1.4c0.9,0.5,2.1,0.7,3.4,0.7c0.8,0,1.6-0.1,2.3-0.3
		c0.7-0.2,1.3-0.4,1.8-0.7c0.5-0.3,1-0.5,1.3-0.8c0.3-0.3,0.6-0.5,0.8-0.7c0.6,0.7,1.4,1.2,2.3,1.8c1,0.5,2.3,0.8,4,0.8
		c2.5,0,4.4-0.6,5.8-1.9c1.4-1.3,2.1-3.4,2.1-6.3V97.9h-2.5c-1.8,0-3.3,1.5-3.3,3.3V108.4z"/>
	<path class="st0" d="M25.6,97v-1c0-2.7,0.2-4.8,0.7-6.1c0.5-1.4,1.3-2.2,2.6-2.4v-2c-3.3,0-5.6,0.8-7,2.3c-1.4,1.5-2.1,4-2.1,7.3
		V97H25.6z"/>
	<path class="st0" d="M8.4,114.5v2c-0.4,0-0.9,0-1.4,0c-2.3,0-4-0.6-5.3-1.8c-1.3-1.2-1.9-3.1-1.9-5.8v-1h2.1c1.7,0,3.1,1.3,3.3,3
		c0.1,0.9,0.4,1.8,0.8,2.4C6.7,114.1,7.5,114.5,8.4,114.5"/>
	<path class="st0" d="M7.2,103.5v-0.1c0-0.7,0.6-1.2,1.2-1.2c-0.6-0.6-0.8-1.3-0.8-2.1c0-2.1,1.5-3.4,3.6-3.4c1.1,0,1.8,0.2,2.2,0.6
		c0.4,0.4,0.4,0.9,0.4,1.9v0.3h-0.9l0-0.3c-0.1-0.8-0.5-1.1-1.5-1.1c-1.1,0-1.7,0.7-1.7,2.1c0,1.3,0.4,2,1.3,2.1h3.7v0.1
		c0,0.7-0.6,1.2-1.2,1.2H7.2z"/>
	<polygon class="st1" points="82.8,59.7 78.9,59.7 118.5,140.3 122.5,140.3 	"/>
</g>
</svg>
