<?xml version="1.0" encoding="utf-8"?>
<!-- Generator: Adobe Illustrator 24.2.1, SVG Export Plug-In . SVG Version: 6.00 Build 0)  -->
<svg version="1.1" id="Layer_1" xmlns="http://www.w3.org/2000/svg" xmlns:xlink="http://www.w3.org/1999/xlink" x="0px" y="0px"
	 viewBox="0 0 200 200" style="enable-background:new 0 0 200 200;" xml:space="preserve">
<style type="text/css">
	.st0{fill:#194D7E;}
	.st1{fill:#B3B3B3;}
	.st2{fill:#555554;}
</style>
<g>
	<path class="st0" d="M128.4,69.9c4.2-3.7,9-5.8,14.8-5.2c7.5,0.8,11.5,5.6,13.3,12.9c2.1-9.5-4.7-20.4-14-22.9
		c-8.5-2.3-15.5,0.9-21.9,6c-3.8,3-7.3,6.3-10.7,9.3c-3.9-2.5-7.6-4.7-11.2-7h0v0c5.1,6.6,10.2,13.3,15.4,20.2
		C119.4,78.2,123.8,74,128.4,69.9z"/>
	<path class="st1" d="M154.2,87.4l0.2,0.2c0,0,0,0,0,0L154.2,87.4z"/>
	<path class="st1" d="M154.4,87.6C154.4,87.6,154.4,87.6,154.4,87.6C154.4,87.6,154.4,87.6,154.4,87.6L154.4,87.6z"/>
	<path class="st2" d="M49.9,54.7c2.3-0.7,4.6-1.1,7-1.2c4-0.1,8,0.6,11.6,2.3c4,2,7.7,4.7,10.7,8.1c3.5,3.7,6.6,7.7,10,11.5
		c3.3,3.8,6.6,7.7,10,11.4c2.6,2.9,5.3,5.6,8.2,8.2c12.2,10.9,37.5,10.5,46.9-7.4c-1.3,0.5-2.6,1.1-3.8,1.8
		c-8.6,6.5-18.7,7.5-27.6,1.9c-4.2-2.7-8.1-5.9-11.5-9.6c-4.7-5-8.8-10.5-13.2-15.7C92.9,59.8,87.4,53.5,80,49.5
		c-11-6-25.6-4.7-33.6,2.9c-1.2,1.3-2.3,2.7-3.3,4.2c0.1-0.1,0.6-0.1,0.7-0.1C45.9,56.3,47.9,55.3,49.9,54.7z"/>
	<path class="st0" d="M78.1,87c-4.4-2.4-7.8-6.7-11.5-10.1c-0.8,6.6,4.3,15.5,11.5,19.2c7.7,3.9,17.4,2.8,23.7-3l-8.3-8.9
		C88.6,87.7,83.2,89.8,78.1,87z"/>
	<path class="st0" d="M137.4,93.7c5.5-0.3,10.6-2.7,14.4-6.8c6-6.3,4.3-14.7-4.3-18.8C154.2,78.8,149.1,88.6,137.4,93.7z"/>
	<path class="st2" d="M5.2,131.5c1.7-0.1,3.3-0.6,4.7-1.6c0.5-0.9,0.7-1.9,0.7-2.9c-0.1-1.5-0.7-2.9-1.7-4c-1.1-1.4-2.5-2.5-4-3.5
		l-0.1,0c-0.4,0.6-0.7,1.2-0.9,1.9c0,0.2,0.1,0.4,0.5,0.6c1.3,0.6,2.4,1.5,3.4,2.5c0.9,0.9,1.4,2,1.6,3.2c0,0.1-0.1,0.3-0.3,0.4
		c-1.1,0.7-2.4,1.1-3.7,1.1c-2.1,0-2.7-1.1-2.8-2.6l-0.7,0C2,127.1,2,127.5,2,128C2,130.4,3.3,131.5,5.2,131.5z"/>
	<path class="st2" d="M20,133c0.9-1.3,1.3-2.9,1.3-4.4c0-1.6-0.3-3.2-1.1-4.6c-0.4-1.1-1.4-1.8-2.5-1.9c-1,0.1-1.8,0.6-2.4,1.4
		c-0.7,0.8-1.1,1.8-1.1,2.9c0,2.2,1.7,3.2,3.7,3.2c0.8,0,1.5-0.1,2.2-0.3c-0.2,1.1-0.8,2.1-1.6,2.8c-1.2,1.5-3,2.5-4.9,2.6
		c-0.9,0-1.7-0.2-2.5-0.6l-0.3,0.5c1.4,1,3.1,1.6,4.8,1.7C17.1,136.2,18.5,135.3,20,133z M18.1,127.5c-1.4,0-2.9-0.7-2.9-1.8
		c0-0.6,1.1-1.5,1.9-1.5c1.4,0,2.4,1.4,2.9,3.1C19.4,127.4,18.7,127.5,18.1,127.5z"/>
	<path class="st2" d="M83.1,126.6l0.9-1.8l-0.1,0l-1.4,0c-1,0-2-0.2-2.9-0.5c-1.7-0.8-3.6-1.3-5.5-1.5c-2,0-3.5,1.2-3.7,3l0.8,2.2
		h0.2l0.5-1.5l-0.2-0.8c0.6-0.6,1.3-0.9,2.1-0.8c1.8,0.1,3.6,0.5,5.3,1.2l0,0.1c-3.5,2.1-6.3,3-9,3l-1,0v0h-0.1c0,0,0,0-0.1,0
		c0,0,0,0,0,0l-6.6,0v0h0c0,0-0.1,0-0.1,0c0,0,0,0,0,0l-6.6,0v0h0c0,0-0.1,0-0.1,0c0,0,0,0,0,0l-6.6,0c0,0,0,0,0,0v0h0
		c0,0-0.1,0-0.1,0c0,0,0,0,0,0l-6.6,0v0h0c0,0-0.1,0-0.1,0c0,0,0,0,0,0l-6.6,0v0h0c0,0-0.1,0-0.1,0c0,0,0,0,0,0h-0.1
		c-1.4,0-2.6-1.1-2.7-2.5c-0.5-2.5-1-5.1-1.6-7.5l-0.1-0.1c-0.4,0.6-0.8,1.1-1.2,1.7c0.7,2,1.1,4.1,1.4,6.3c0,0.4-0.5,0.9-1.1,1.3
		c-0.8,0.5-1.8,0.8-2.7,0.8c-0.1,0-0.3,0-0.4,0c-1.2-0.1-2-1.1-1.9-2.3l-0.7,0.1c0,0.4-0.1,0.8-0.1,1.2c0,2,1,3.1,2.9,3.1
		c1.2-0.1,2.4-0.5,3.4-1.1c0.6-0.3,1.1-0.9,1.2-1.6h0.1c0.7,2.1,1.9,2.7,3.4,2.7h0.3c0,0,0,0,0,0h6.7h0H49v0c0,0,0,0,0,0h6.7h0h6.7
		h0h6.7c0,0,0,0,0,0h0.9c2.6,0,5.1-0.8,7.3-2.3l2.8-1.8C81.1,126.7,82.1,126.5,83.1,126.6z"/>
	<path class="st0" d="M106,131.3L106,131.3l0.2,0c2.6,0,3.8-0.3,4.5-1c0.7-0.9,1.2-2,1.2-3.1c-0.2-1.8-0.7-3.6-1.7-5.1h-0.1
		c-0.5,0.6-0.9,1.2-1.3,1.9c0.9,1.7,1.7,3.4,1.7,4.2c0,0.3-0.4,0.5-1,0.7c-1.1,0.3-2.2,0.4-3.3,0.3H106h0c0,0-0.1,0-0.1,0
		c0,0,0,0,0,0c-0.9-0.1-1.7-0.7-2-1.5c-0.4-1.2-0.5-2.5-0.4-3.8c0-3.3-0.1-6.6-0.2-9.9l-0.1-0.1c-0.5,0.4-1,0.9-1.4,1.4
		c0.1,2,0.2,3.9,0.2,5.9c0,2.9,0,4.1-0.7,5.2c-0.3,0.5-0.8,1-1.2,1.4l-0.1,0c0-0.4,0.1-0.7,0.1-1.1c-0.2-1.3-0.6-2.5-1.3-3.6
		c-0.9-1.5-1.8-2.8-2.7-4.1l0.6-1c-1.1-0.7-2.2-1.5-3.2-2.4h-0.1c-0.2,0.5-0.4,1-0.5,1.5c0,0.6,0.9,1.6,1.8,2.8
		c2.9,3.9,4.6,6.6,4.8,8.2c-2,1.3-4.2,2.3-6.4,3.1l0.1,0.1l1.8,0.2c1.2,0,2.4-0.2,3.4-0.7c1.8-0.8,3.2-2.4,3.7-4.3l0.1,0
		c0,3.2,1.9,4.6,3.5,4.6H106z"/>
	<polygon class="st1" points="109.5,134.5 109.5,134.5 109.5,134.5 	"/>
	<path class="st0" d="M110.1,137.9c0.6-0.5,1-1,1.4-1.7c-0.6-0.7-1.3-1.3-2-1.8c-0.5,0.5-0.9,1.1-1.4,1.7
		C108.8,136.8,109.4,137.3,110.1,137.9z"/>
	<path class="st2" d="M193.4,126.5c-1.5,0.6-3.2,1-4.8,1.2c-0.7-0.1-1.5-0.4-2-0.9c-0.8-0.5-1.4-1.4-1.4-2.4c0-0.6,1.3-1.4,3.1-1.4
		c1.1,0,2.2,0.3,3,1.1l0.3-0.3c-0.9-1.7-2.2-2.7-3.7-2.7c-1.5,0.1-2.8,0.9-3.5,2.3c-0.4,0.7-0.7,1.4-0.7,2.2c0,1.4,0.8,2.6,2,3.3
		v0.1c-0.8,0.2-1.6,0.3-2.5,0.4l-1.1,0c0,0-0.1,0-0.1,0c0,0,0,0-0.1,0l-6.6,0v0h0c0,0-0.1,0-0.1,0c0,0,0,0,0,0l-6.6,0v0h0
		c0,0-0.1,0-0.1,0c0,0,0,0,0,0l-6.6,0v0h0c0,0-0.1,0-0.1,0c0,0,0,0,0,0l-6.6,0v0h0c0,0-0.1,0-0.1,0c0,0,0,0,0,0l-6.6,0
		c0,0-0.1,0-0.1,0c0,0,0,0-0.1,0h-0.1c-1.1,0.1-2.1-0.4-2.6-1.4c-0.5-1.1-1-2.2-1.7-3.2c-0.4-0.7-1.2-1.1-2-1.1
		c-1.1,0-2.5,1.1-3.1,3.2c-0.5,1.6-1.1,2.5-2.8,2.5l-0.5,0v0h-0.1c0,0,0,0,0,0c0,0,0,0,0,0h-0.1c-0.6,0-1.2-0.1-1.7-0.5
		c-0.6-0.6-0.9-1.4-0.8-2.2c0-4-0.1-7.7-0.2-11.8l-0.1-0.1c-0.6,0.4-1.1,0.9-1.5,1.5c0.4,6.6,0.5,10.9,0.5,13.6c0,0.4,0,0.7-0.1,1.1
		c-0.5,0.7-1.1,1.2-1.8,1.6c-0.9,0.5-1.9,0.8-2.9,0.8c-1.1,0-2.2-0.5-2.9-1.4c-0.6-0.7-0.9-1.7-0.9-2.6c0-1,0.3-2,0.7-2.9l-0.6-0.2
		c-0.7,1.3-1.1,2.8-1.1,4.2c-0.1,1.4,0.3,2.7,1.2,3.8c0.9,1,2.2,1.5,3.5,1.4c1.2,0,2.5-0.4,3.5-1c0.8-0.5,1.4-1.1,1.9-1.9
		c0.3-0.8,0.5-1.7,0.6-2.5h0.1c0.6,0.9,1.6,1.4,2.6,1.3h0.3c0,0,0,0,0,0h0.3c1.4,0.1,2.8-0.7,3.3-2h0.1c1.2,1.3,2.9,2.2,4.8,2.4
		c0.4,0,0.8-0.2,1.1-0.6c0.3-0.4,0.5-0.8,0.5-1.3h0.1c0.5,0.9,1.5,1.5,2.6,1.5h0.3v0h6.7h0h6.7h0h6.7h0h6.7h0h6.7v0c0,0,0,0,0,0h0.5
		c1.4-0.1,2.8-0.4,4.1-0.9c2.1-0.7,3.3-0.8,6-1.8L193.4,126.5L193.4,126.5z M143.8,129.6c-0.8-0.1-1.6-0.3-2.3-0.7
		c-0.7-0.4-1.8-1.3-2-1.9c0.2-0.9,1-1.5,1.9-1.5c0.9,0.1,1.7,0.7,2.2,1.5c0.5,0.7,0.8,1.4,0.8,2.2
		C144.4,129.6,144.1,129.6,143.8,129.6z"/>
	<path class="st2" d="M196.4,128.2c0,1.1,0,2.3-0.2,3.4l0.2,0.1c1-1.1,1.4-1.8,1.5-2.7c0.1-0.9,0.1-1.9,0.1-2.8
		c0-3.9-0.1-8.2-0.4-11.9l-0.2-0.1c-0.6,0.5-1.1,1.1-1.7,1.8c0.3,2.9,0.6,7.4,0.6,10.5V128.2z"/>
	<path class="st2" d="M11.3,149.7c-0.2,0.9-0.4,1.8-0.6,2.7c-0.2-0.9-0.4-1.8-0.6-2.7l-2.2-7H6.6l-2.1,7c-0.3,0.9-0.5,1.9-0.6,2.8
		c-0.1-0.9-0.3-1.8-0.5-2.7l-1.8-7.1H0.1l3.1,11.5h1.3l2.2-7.6c0.2-0.7,0.4-1.5,0.5-2.3c0,0.3,0.1,0.6,0.2,0.9
		c0.1,0.5,0.3,0.9,0.4,1.3l2.3,7.7h1.3l3.1-11.5h-1.4L11.3,149.7z"/>
	<path class="st2" d="M24.9,144c-1-1.1-2.4-1.6-3.9-1.6c-1.5-0.1-2.9,0.5-3.9,1.5c-1,1.2-1.5,2.8-1.4,4.3c-0.1,1.6,0.4,3.1,1.4,4.4
		c1,1.1,2.4,1.6,3.9,1.5c1.5,0.1,2.9-0.5,3.9-1.6c1-1.2,1.5-2.8,1.4-4.3C26.4,146.8,25.9,145.2,24.9,144z M23.9,151.9
		C23.9,151.9,23.9,151.9,23.9,151.9c-1.6,1.6-4.2,1.6-5.8,0c-0.7-1-1.1-2.3-1-3.5h0c-0.1-1.2,0.3-2.5,1-3.5c0.7-0.8,1.8-1.3,2.9-1.2
		c1.1-0.1,2.2,0.4,2.9,1.2C25.2,147,25.2,149.7,23.9,151.9z"/>
	<path class="st2" d="M36.1,145.9c0.1-0.9-0.3-1.8-1-2.4c-0.9-0.6-2-0.9-3.1-0.8h-3.1v11.5h1.3v-4.8h2.4l2.8,4.8h1.6l-3.1-5.1
		C35.2,148.6,36.2,147.3,36.1,145.9z M32,148.2h-1.8l0-4.4h1.7c0.8-0.1,1.5,0.1,2.2,0.5c0.5,0.4,0.7,1,0.7,1.6
		c0,0.6-0.2,1.3-0.7,1.7C33.5,148,32.7,148.2,32,148.2z"/>
	<polygon class="st2" points="46.9,142.6 45.3,142.6 40.1,148.3 40.1,142.6 38.8,142.6 38.8,154.1 40.1,154.1 40.1,149.6 
		41.3,148.5 45.5,154.1 47,154.1 42.3,147.6 	"/>
	<path class="st0" d="M62.6,149.7c-0.2,0.9-0.4,1.8-0.6,2.7c-0.2-0.9-0.4-1.8-0.6-2.7l-2.2-7h-1.4l-2.1,7c-0.3,0.9-0.5,1.9-0.6,2.8
		c-0.1-0.9-0.3-1.8-0.5-2.7l-1.8-7.1h-1.4l3,11.5h1.3l2.2-7.6c0.2-0.7,0.4-1.5,0.5-2.3c0,0.3,0.1,0.6,0.2,0.9
		c0.1,0.5,0.3,0.9,0.4,1.3l2.3,7.7h1.3l3.1-11.5h-1.4L62.6,149.7z"/>
	<rect x="67.6" y="142.6" class="st0" width="1.3" height="11.5"/>
	<polygon class="st0" points="70.7,143.8 74.3,143.8 74.3,154.1 75.6,154.1 75.6,143.8 79.3,143.8 79.3,142.6 70.7,142.6 	"/>
	<polygon class="st0" points="88.4,147.5 82.3,147.5 82.3,142.6 81,142.6 81,154.1 82.3,154.1 82.3,148.7 88.4,148.7 88.4,154.1 
		89.7,154.1 89.7,142.6 88.4,142.6 	"/>
	<path class="st0" d="M101.4,144c-1-1.1-2.4-1.6-3.9-1.6c-1.5-0.1-2.9,0.5-3.9,1.5c-1,1.2-1.5,2.8-1.4,4.3c-0.1,1.6,0.4,3.1,1.4,4.4
		c1,1.1,2.4,1.6,3.9,1.5c1.5,0.1,2.9-0.5,3.9-1.6c1-1.2,1.5-2.8,1.4-4.3C102.9,146.8,102.4,145.2,101.4,144z M100.4,151.9
		c-0.7,0.8-1.8,1.3-2.9,1.2c-1.1,0.1-2.2-0.4-2.9-1.2c-0.7-1-1.1-2.3-1-3.5c-0.1-1.2,0.3-2.5,1-3.5c0.7-0.8,1.8-1.3,2.9-1.2
		c1.1-0.1,2.2,0.4,2.9,1.2C101.7,147,101.7,149.7,100.4,151.9z"/>
	<path class="st0" d="M112.6,150.1c0.1,0.8-0.2,1.6-0.8,2.2c-0.6,0.5-1.4,0.8-2.2,0.8c-0.8,0.1-1.7-0.2-2.3-0.8
		c-0.6-0.6-0.8-1.4-0.8-2.2v-7.5h-1.3v7.4c-0.1,1.1,0.3,2.3,1.1,3.1c0.9,0.8,2,1.2,3.2,1.1c1.2,0.1,2.4-0.3,3.3-1.1
		c0.8-0.8,1.2-1.9,1.2-3.1v-7.4l-1.3,0V150.1z"/>
	<polygon class="st0" points="115.6,143.8 119.2,143.8 119.2,154.1 120.5,154.1 120.5,143.8 124.2,143.8 124.2,142.6 115.6,142.6 	
		"/>
	<path class="st2" d="M135.4,148.1L135.4,148.1c0.6-0.2,1.2-0.5,1.7-0.9c0.4-0.5,0.6-1.1,0.6-1.7c0.1-0.8-0.3-1.7-1-2.2
		c-1-0.5-2.2-0.8-3.3-0.7h-3.2l0,11.5h4c1,0.1,2.1-0.2,2.9-0.9c0.7-0.6,1.1-1.5,1-2.4C138,149.3,137.1,148.4,135.4,148.1z
		 M133.3,143.8c0.8-0.1,1.5,0.1,2.2,0.4c0.5,0.3,0.7,0.8,0.7,1.4c0.1,0.6-0.2,1.1-0.6,1.5c-0.6,0.3-1.3,0.5-2,0.4h-2.2l0-3.8H133.3z
		 M135.9,152.4c-0.6,0.4-1.4,0.6-2.1,0.5h-2.4v-4.3l2.3,0c0.8-0.1,1.5,0.1,2.2,0.5c0.5,0.4,0.8,1,0.7,1.6
		C136.6,151.4,136.4,152,135.9,152.4z"/>
	<path class="st2" d="M149,144c-1-1.1-2.4-1.6-3.9-1.6c-1.5-0.1-2.9,0.5-3.9,1.5c-1,1.2-1.5,2.8-1.4,4.3c-0.1,1.6,0.4,3.1,1.4,4.4
		c1,1.1,2.4,1.6,3.9,1.5c1.5,0.1,2.9-0.5,3.9-1.6c1-1.2,1.5-2.8,1.4-4.3C150.5,146.8,150,145.2,149,144z M148,151.9
		C148,151.9,148,151.9,148,151.9c-1.6,1.6-4.2,1.6-5.8,0c-0.7-1-1.1-2.3-1-3.5h0c-0.1-1.2,0.3-2.5,1-3.5c0.7-0.8,1.8-1.3,2.9-1.2
		c1.1-0.1,2.2,0.4,2.9,1.2C149.3,147,149.3,149.7,148,151.9z"/>
	<path class="st2" d="M160.2,145.9c0.1-0.9-0.3-1.8-1-2.4c-0.9-0.6-2-0.9-3.1-0.8H153v11.5h1.3v-4.8h2.4l2.8,4.8h1.6l-3.1-5.1
		C159.3,148.6,160.3,147.3,160.2,145.9z M156.1,148.2h-1.8l0-4.4h1.7c0.8-0.1,1.5,0.1,2.2,0.5c0.5,0.4,0.7,1,0.7,1.6
		c0,0.6-0.2,1.3-0.7,1.7C157.6,148,156.8,148.2,156.1,148.2z"/>
	<path class="st2" d="M172,147.2c-0.3-2.8-2.8-4.9-5.6-4.6h-3.5v11.5h3.2c1.6,0.1,3.2-0.4,4.4-1.5c1.1-1.2,1.6-2.7,1.5-4.3l0,0
		C172.1,147.9,172.1,147.6,172,147.2z M169.4,151.8c-1,0.8-2.3,1.3-3.6,1.2h-1.6v-9.2h1.9c1.2-0.1,2.4,0.3,3.3,1.1
		c0.8,0.9,1.2,2.1,1.1,3.4h0C170.7,149.6,170.3,150.8,169.4,151.8z"/>
	<polygon class="st2" points="174.6,154.1 181,154.1 181,152.9 175.9,152.9 175.9,148.7 180.7,148.7 180.7,147.5 175.9,147.5 
		175.9,143.8 181,143.8 181,142.6 174.6,142.6 	"/>
	<path class="st2" d="M190.8,145.9c0.1-0.9-0.3-1.8-1-2.4c-0.9-0.6-2-0.9-3.1-0.8h-3.1v11.5h1.3v-4.8h2.4l2.8,4.8h1.6l-3.1-5.1
		C189.9,148.6,190.8,147.3,190.8,145.9z M186.7,148.2h-1.8l0-4.4h1.7c0.8-0.1,1.5,0.1,2.2,0.5c0.5,0.4,0.7,1,0.7,1.6
		c0,0.6-0.2,1.3-0.7,1.7C188.1,148,187.4,148.2,186.7,148.2z"/>
	<path class="st2" d="M199.2,149.1c-0.7-0.6-1.6-1.1-2.5-1.4c-0.6-0.2-1.1-0.4-1.6-0.7c-0.3-0.2-0.6-0.4-0.7-0.7
		c-0.2-0.3-0.2-0.6-0.2-1c0-0.5,0.2-1,0.6-1.3c0.5-0.3,1.1-0.5,1.7-0.5c1,0,1.9,0.2,2.8,0.6l0.4-1.2c-1-0.4-2.1-0.6-3.1-0.6
		c-0.9,0-1.9,0.2-2.6,0.8c-0.7,0.5-1,1.3-1,2.1c0,0.7,0.2,1.5,0.7,2c0.6,0.6,1.4,1.1,2.3,1.4c0.6,0.2,1.2,0.4,1.7,0.7
		c0.3,0.2,0.6,0.4,0.8,0.7c0.2,0.3,0.3,0.6,0.2,1c0,0.6-0.2,1.1-0.7,1.4c-0.6,0.4-1.3,0.6-2,0.5c-0.6,0-1.1-0.1-1.6-0.2
		c-0.5-0.1-1-0.3-1.5-0.5v1.3c1,0.4,2.1,0.6,3.1,0.5c1.1,0.1,2.1-0.2,3-0.8c0.7-0.6,1.1-1.4,1.1-2.4
		C199.9,150.3,199.7,149.7,199.2,149.1z"/>
</g>
</svg>
